<svg xmlns="http://www.w3.org/2000/svg" width="45" height="45" viewBox="0 0 45 45">
  <g id="ic-sessions" transform="translate(0)">
    <g id="Oval" transform="translate(0)" fill="#f3f3f9" stroke="rgba(0,88,255,0.1)" stroke-width="1">
      <circle cx="22.5" cy="22.5" r="22.5" stroke="none"/>
      <circle cx="22.5" cy="22.5" r="22" fill="none"/>
    </g>
    <g id="upload" transform="translate(10.029 10.962)">
      <path id="Path_202422" data-name="Path 202422" d="M12.2,13.2a.679.679,0,0,1,0-.96L14.236,10.2a.679.679,0,0,1,.96,0l2.038,2.038a.679.679,0,0,1-.96.96l-.878-.878v3.115a.679.679,0,0,1-1.358,0V12.319l-.878.878A.679.679,0,0,1,12.2,13.2Z" transform="translate(-2.246 -2.567)" fill="#1d409d" stroke="#1d409d" stroke-width="0.2"/>
      <path id="Path_202423" data-name="Path 202423" d="M17.471,21.358a.679.679,0,0,0,0-1.358H10.679a.679.679,0,0,0,0,1.358Z" transform="translate(-1.604 -5.775)" fill="#1d409d" stroke="#1d409d" stroke-width="0.2"/>
      <path id="Path_202424" data-name="Path 202424" d="M7.458,2.765A2.038,2.038,0,0,1,9.049,2H17.9a2.038,2.038,0,0,1,2.038,2.038V18.98A2.038,2.038,0,0,1,17.9,21.017H7.038A2.038,2.038,0,0,1,5,18.98V6.552a2.038,2.038,0,0,1,.446-1.273Zm1.591.594a.679.679,0,0,0-.53.255L6.507,6.127a.679.679,0,0,0-.149.424V18.98a.679.679,0,0,0,.679.679H17.9a.679.679,0,0,0,.679-.679V4.038a.679.679,0,0,0-.679-.679Z" fill="#1d409d" stroke="#1d409d" stroke-width="0.2" fill-rule="evenodd"/>
    </g>
  </g>
</svg>
