<svg id="ic-sessions" xmlns="http://www.w3.org/2000/svg" width="44" height="44" viewBox="0 0 44 44">
  <g id="Oval" fill="#f3f3f9" stroke="rgba(0,88,255,0.1)" stroke-width="1">
    <circle cx="22" cy="22" r="22" stroke="none"/>
    <circle cx="22" cy="22" r="21.5" fill="none"/>
  </g>
  <g id="handshake_1_" data-name="handshake (1)" transform="translate(13.219 13.377)">
    <g id="Group_70377" data-name="Group 70377">
      <path id="Path_202418" data-name="Path 202418" d="M17.728,25.342a.453.453,0,0,0-.641-.015l-.015.015h0l-1.14,1.14L12.41,22.961a2.1,2.1,0,0,0-1.475-.7h0a2.247,2.247,0,0,0-1.573.764l-1.8,1.8a.749.749,0,0,1-1.06-1.06L9.263,21a3.326,3.326,0,0,1,2.367-.98h3.135a.453.453,0,0,0,0-.907H11.63a4.222,4.222,0,0,0-2.64.917,2.566,2.566,0,0,0-1.549-.694,2.1,2.1,0,0,0-1.619.633l-.147.147L4.8,19.245a.454.454,0,1,0-.642.641l1.192,1.192a.453.453,0,0,0,.641,0l.468-.468a1.181,1.181,0,0,1,.923-.369,1.65,1.65,0,0,1,.939.413L5.859,23.122A1.656,1.656,0,1,0,8.2,25.464l1.8-1.8c.642-.642,1.172-.663,1.77-.062l4.24,4.24a.751.751,0,0,1,0,1.061.758.758,0,0,1-1.062,0L13.47,27.442a.453.453,0,0,0-.638.644L15.1,30.328a.75.75,0,0,1-1.059,1.061l0,0-.128-.123-.06-.063,0,0-1-.976-.767-.751a.453.453,0,0,0-.647.635l.013.013.11.108c.009.01.018.021.028.03l.625.61,1.036,1.015A.749.749,0,0,1,12.145,32.9l-.028-.025-.05-.053-1.21-1.211a.454.454,0,0,0-.641.643l1.21,1.211a.74.74,0,1,1-1.046,1.046L9.369,33.5a1.653,1.653,0,0,0-1.5-2.249c0-.046.006-.092.006-.139a1.653,1.653,0,0,0-1.652-1.655h-.05V29.41a1.653,1.653,0,0,0-1.651-1.655H4.468V27.71A1.656,1.656,0,0,0,1.7,26.484L.767,25.55a.453.453,0,0,0-.641.641l.932.932-.266.266a1.655,1.655,0,0,0,.869,2.8,1.655,1.655,0,0,0,2.077,2.077,1.657,1.657,0,0,0,2.03,1.3,1.655,1.655,0,0,0,2.808.925l.253-.254.911.911a1.644,1.644,0,0,0,2.808-1.13c.042,0,.084.005.127.005a1.652,1.652,0,0,0,1.65-1.527,1.682,1.682,0,0,0,.242.017,1.656,1.656,0,0,0,1.39-2.556,1.658,1.658,0,0,0,.7-2.758l-.079-.079,1.14-1.14A.453.453,0,0,0,17.728,25.342Zm-16.3,3.741a.749.749,0,0,1,.008-1.053l.85-.85a.749.749,0,1,1,1.071,1.049l-.01.01-.259.259-.6.6A.749.749,0,0,1,1.425,29.082Zm2.768,1.707-.008.008-.418.418a.749.749,0,0,1-1.058-1.06l.41-.409.016-.016.616-.617.234-.233a.749.749,0,0,1,1.06,1.059l-.033.033Zm2.041,1.36-.011.012-.328.328a.743.743,0,0,1-.531.221h0a.749.749,0,0,1-.534-1.275l.853-.855a.749.749,0,0,1,1.082,1.037l-.022.022-.084.084-.007.007Zm2.118,1.282h0l-.418.418A.749.749,0,0,1,6.869,32.8l.427-.427a.749.749,0,0,1,1.057,1.062Z" transform="translate(0 -19.112)" fill="#1d409d" stroke="#1d409d" stroke-width="0.3"/>
    </g>
  </g>
</svg>
