<svg id="ic-sessions" xmlns="http://www.w3.org/2000/svg" width="44" height="44" viewBox="0 0 44 44">
  <g id="Oval" fill="#f3f3f9" stroke="rgba(0,88,255,0.1)" stroke-width="1">
    <circle cx="22" cy="22" r="22" stroke="none"/>
    <circle cx="22" cy="22" r="21.5" fill="none"/>
  </g>
  <g id="layer1" transform="translate(12.495 15.082)">
    <path id="path12972" d="M2.957,291.707a.863.863,0,1,0,0,1.726H14.082a3.031,3.031,0,0,1,2.472.955,4.422,4.422,0,0,1,.962,2.942,4,4,0,0,1-.918,2.885,3.278,3.278,0,0,1-2.534.981H3.213l1.114-1.114A.863.863,0,1,0,3.1,298.865L.519,301.449a.863.863,0,0,0,0,1.223L3.1,305.257a.865.865,0,1,0,1.223-1.222L3.208,302.92H14.064a5.079,5.079,0,0,0,3.8-1.535,5.747,5.747,0,0,0,1.377-4.088,6.11,6.11,0,0,0-1.407-4.062,4.857,4.857,0,0,0-3.783-1.528Z" transform="translate(-0.265 -291.706)" fill="#1d409d" stroke="#1d409d" stroke-width="0.5"/>
  </g>
</svg>
