<svg id="ic-sessions" xmlns="http://www.w3.org/2000/svg" xmlns:xlink="http://www.w3.org/1999/xlink" width="45" height="45" viewBox="0 0 45 45">
  <defs>
    <clipPath id="clip-path">
      <rect id="Rectangle_615" data-name="Rectangle 615" width="19.017" height="19.017" fill="#1d409d"/>
    </clipPath>
  </defs>
  <g id="Oval" transform="translate(0)" fill="#f3f3f9" stroke="rgba(0,88,255,0.1)" stroke-width="1">
    <circle cx="22.5" cy="22.5" r="22.5" stroke="none"/>
    <circle cx="22.5" cy="22.5" r="22" fill="none"/>
  </g>
  <g id="Group_444" data-name="Group 444" transform="translate(12.962 12.962)">
    <g id="Group_444-2" data-name="Group 444" clip-path="url(#clip-path)">
      <path id="Path_465" data-name="Path 465" d="M9.408.25a9.158,9.158,0,1,0,9.158,9.158A9.169,9.169,0,0,0,9.408.25m0,17.172a8.013,8.013,0,1,1,8.014-8.014,8.023,8.023,0,0,1-8.014,8.014" transform="translate(0.1 0.1)" fill="#1d409d"/>
      <path id="Path_466" data-name="Path 466" d="M9.509,19.017a9.509,9.509,0,1,1,9.509-9.509,9.519,9.519,0,0,1-9.509,9.509M9.509.7a8.808,8.808,0,1,0,8.808,8.808A8.818,8.818,0,0,0,9.509.7m0,17.171a8.364,8.364,0,1,1,8.364-8.363,8.372,8.372,0,0,1-8.364,8.363m0-16.027a7.663,7.663,0,1,0,7.664,7.664A7.673,7.673,0,0,0,9.509,1.845" transform="translate(0 0)" fill="#1d409d"/>
      <path id="Path_467" data-name="Path 467" d="M11.606,4.777,7.05,9.333,4.975,7.257a.573.573,0,1,0-.811.81l2.48,2.48a.573.573,0,0,0,.811,0l4.961-4.961a.572.572,0,0,0-.81-.81" transform="translate(1.601 1.846)" fill="#1d409d"/>
      <path id="Path_468" data-name="Path 468" d="M7.149,11.166a.914.914,0,0,1-.653-.272L4.016,8.415A.923.923,0,0,1,5.322,7.11L7.149,8.937l4.311-4.31a.922.922,0,1,1,1.3,1.307L7.8,10.9a.918.918,0,0,1-.653.27M4.669,7.54a.223.223,0,0,0-.157.381L6.992,10.4a.223.223,0,0,0,.315,0l4.961-4.959a.223.223,0,1,0-.317-.314l-4.8,4.8L4.826,7.6a.224.224,0,0,0-.157-.064" transform="translate(1.501 1.746)" fill="#1d409d"/>
    </g>
  </g>
</svg>
