<svg id="ic-sessions" xmlns="http://www.w3.org/2000/svg" width="44" height="44" viewBox="0 0 44 44">
  <g id="Oval" fill="#f3f3f9">
    <path d="M22,0A22,22,0,1,1,0,22,22,22,0,0,1,22,0Z" stroke="none"/>
    <path d="M 22 1 C 19.16457939147949 1 16.41449928283691 1.555099487304688 13.8261604309082 2.649871826171875 C 11.32561111450195 3.707511901855469 9.079681396484375 5.221828460693359 7.150760650634766 7.150760650634766 C 5.221828460693359 9.079681396484375 3.707511901855469 11.32561111450195 2.649871826171875 13.8261604309082 C 1.555099487304688 16.41449928283691 1 19.16457939147949 1 22 C 1 24.83542060852051 1.555099487304688 27.58550071716309 2.649871826171875 30.1738395690918 C 3.707511901855469 32.67438125610352 5.221828460693359 34.92031097412109 7.150760650634766 36.84923934936523 C 9.079681396484375 38.77817153930664 11.32561111450195 40.29248046875 13.8261604309082 41.35012817382812 C 16.41449928283691 42.44490051269531 19.16457939147949 43 22 43 C 24.83542060852051 43 27.58550071716309 42.44490051269531 30.1738395690918 41.35012817382812 C 32.67438125610352 40.29248046875 34.92031097412109 38.77817153930664 36.84923934936523 36.84923934936523 C 38.77817153930664 34.92031097412109 40.29248046875 32.67438125610352 41.35012817382812 30.1738395690918 C 42.44490051269531 27.58550071716309 43 24.83542060852051 43 22 C 43 19.16457939147949 42.44490051269531 16.41449928283691 41.35012817382812 13.8261604309082 C 40.29248046875 11.32561111450195 38.77817153930664 9.079681396484375 36.84923934936523 7.150760650634766 C 34.92031097412109 5.221828460693359 32.67438125610352 3.707511901855469 30.1738395690918 2.649871826171875 C 27.58550071716309 1.555099487304688 24.83542060852051 1 22 1 M 22 0 C 34.15026092529297 0 44 9.8497314453125 44 22 C 44 34.15026092529297 34.15026092529297 44 22 44 C 9.8497314453125 44 0 34.15026092529297 0 22 C 0 9.8497314453125 9.8497314453125 0 22 0 Z" stroke="none" fill="rgba(0,88,255,0.1)"/>
  </g>
  <path id="note-list-check" d="M17,2.25H7A3.383,3.383,0,0,0,3.25,6V18A3.383,3.383,0,0,0,7,21.75H17A3.383,3.383,0,0,0,20.75,18V6A3.383,3.383,0,0,0,17,2.25ZM19.25,18c0,1.577-.673,2.25-2.25,2.25H7c-1.577,0-2.25-.673-2.25-2.25V6c0-1.577.673-2.25,2.25-2.25H17c1.577,0,2.25.673,2.25,2.25Zm-2-10a.75.75,0,0,1-.75.75h-4a.75.75,0,0,1,0-1.5h4A.75.75,0,0,1,17.25,8Zm0,4a.75.75,0,0,1-.75.75h-4a.75.75,0,0,1,0-1.5h4A.75.75,0,0,1,17.25,12ZM10.03,6.8a.75.75,0,0,1,0,1.061L8.7,9.2a.748.748,0,0,1-1.06,0l-.67-.669A.75.75,0,0,1,8.03,7.469l.137.137.8-.8A.749.749,0,0,1,10.03,6.8Zm0,4a.75.75,0,0,1,0,1.061L8.7,13.2a.748.748,0,0,1-1.06,0l-.667-.666a.75.75,0,0,1,1.06-1.062l.137.137.8-.8a.749.749,0,0,1,1.06-.009ZM17.25,16a.75.75,0,0,1-.75.75h-4a.75.75,0,0,1,0-1.5h4A.75.75,0,0,1,17.25,16Zm-7.22-1.2a.75.75,0,0,1,0,1.061L8.7,17.2a.748.748,0,0,1-1.06,0l-.667-.666a.75.75,0,0,1,1.06-1.062l.137.137.8-.8a.749.749,0,0,1,1.06-.009Z" transform="translate(10 10)" fill="#1d409d"/>
</svg>
