<svg id="ic-sessions" xmlns="http://www.w3.org/2000/svg" xmlns:xlink="http://www.w3.org/1999/xlink" width="44" height="44" viewBox="0 0 44 44">
  <defs>
    <clipPath id="clip-path">
      <rect id="Rectangle_617" data-name="Rectangle 617" width="17.915" height="17.915" fill="#1d409d"/>
    </clipPath>
  </defs>
  <g id="Oval" fill="#f3f3f9">
    <path d="M22,0A22,22,0,1,1,0,22,22,22,0,0,1,22,0Z" stroke="none"/>
    <path d="M 22 1 C 19.16457939147949 1 16.41449928283691 1.555099487304688 13.8261604309082 2.649871826171875 C 11.32561111450195 3.707511901855469 9.079681396484375 5.221828460693359 7.150760650634766 7.150760650634766 C 5.221828460693359 9.079681396484375 3.707511901855469 11.32561111450195 2.649871826171875 13.8261604309082 C 1.555099487304688 16.41449928283691 1 19.16457939147949 1 22 C 1 24.83542060852051 1.555099487304688 27.58550071716309 2.649871826171875 30.1738395690918 C 3.707511901855469 32.67438125610352 5.221828460693359 34.92031097412109 7.150760650634766 36.84923934936523 C 9.079681396484375 38.77817153930664 11.32561111450195 40.29248046875 13.8261604309082 41.35012817382812 C 16.41449928283691 42.44490051269531 19.16457939147949 43 22 43 C 24.83542060852051 43 27.58550071716309 42.44490051269531 30.1738395690918 41.35012817382812 C 32.67438125610352 40.29248046875 34.92031097412109 38.77817153930664 36.84923934936523 36.84923934936523 C 38.77817153930664 34.92031097412109 40.29248046875 32.67438125610352 41.35012817382812 30.1738395690918 C 42.44490051269531 27.58550071716309 43 24.83542060852051 43 22 C 43 19.16457939147949 42.44490051269531 16.41449928283691 41.35012817382812 13.8261604309082 C 40.29248046875 11.32561111450195 38.77817153930664 9.079681396484375 36.84923934936523 7.150760650634766 C 34.92031097412109 5.221828460693359 32.67438125610352 3.707511901855469 30.1738395690918 2.649871826171875 C 27.58550071716309 1.555099487304688 24.83542060852051 1 22 1 M 22 0 C 34.15026092529297 0 44 9.8497314453125 44 22 C 44 34.15026092529297 34.15026092529297 44 22 44 C 9.8497314453125 44 0 34.15026092529297 0 22 C 0 9.8497314453125 9.8497314453125 0 22 0 Z" stroke="none" fill="rgba(0,88,255,0.1)"/>
  </g>
  <g id="Group_448" data-name="Group 448" transform="translate(13.042 13.042)">
    <g id="Group_447" data-name="Group 447" clip-path="url(#clip-path)">
      <path id="Path_471" data-name="Path 471" d="M6.327,5.53c-.124.167-.256.328-.393.482a.681.681,0,1,0,1.019.9c.164-.184.318-.375.465-.572A.68.68,0,1,0,6.327,5.53" transform="translate(8.563 7.81)" fill="#1d409d"/>
      <path id="Path_472" data-name="Path 472" d="M6.593,7.542a.916.916,0,0,1-.614-.231A.929.929,0,0,1,5.9,6c.132-.152.261-.306.38-.467a.92.92,0,0,1,.609-.363.9.9,0,0,1,.691.171.931.931,0,0,1,.189,1.3c-.152.2-.311.4-.48.589a.926.926,0,0,1-.693.313m.43-1.889a.435.435,0,0,0-.348.174c-.127.171-.263.341-.405.5a.43.43,0,0,0,.037.611.442.442,0,0,0,.609-.04c.159-.176.311-.363.452-.554a.44.44,0,0,0-.087-.606.458.458,0,0,0-.258-.085" transform="translate(8.414 7.661)" fill="#1d409d"/>
      <path id="Path_473" data-name="Path 473" d="M7.428,4.036a.682.682,0,0,0-.81.519c-.042.2-.1.405-.157.6a.681.681,0,0,0,.447.853.719.719,0,0,0,.2.03.685.685,0,0,0,.651-.48c.072-.234.134-.475.186-.713a.68.68,0,0,0-.519-.81" transform="translate(9.552 5.974)" fill="#1d409d"/>
      <path id="Path_474" data-name="Path 474" d="M7.261,6.435a.886.886,0,0,1-.281-.045.909.909,0,0,1-.542-.45.926.926,0,0,1-.067-.708c.06-.191.112-.385.154-.582a.928.928,0,0,1,1.814.4c-.055.249-.119.495-.194.736a.922.922,0,0,1-.885.654m.171-2.018a.435.435,0,0,0-.423.341c-.045.209-.1.418-.162.621a.423.423,0,0,0,.283.539.426.426,0,0,0,.539-.286c.07-.229.132-.46.184-.693a.431.431,0,0,0-.331-.512.386.386,0,0,0-.092-.01" transform="translate(9.403 5.827)" fill="#1d409d"/>
      <path id="Path_475" data-name="Path 475" d="M5.628,6.239c-.181.1-.368.194-.557.281a.681.681,0,0,0,.281,1.3.7.7,0,0,0,.281-.06c.224-.1.445-.214.659-.333a.68.68,0,0,0-.664-1.188" transform="translate(6.94 9.14)" fill="#1d409d"/>
      <path id="Path_476" data-name="Path 476" d="M5.5,8.212a.926.926,0,0,1-.38-1.772c.179-.085.358-.174.534-.271v0a.931.931,0,0,1,.907,1.625c-.221.122-.452.236-.681.341a.9.9,0,0,1-.38.08M5.9,6.6c-.189.1-.38.2-.574.286a.438.438,0,0,0-.219.574.446.446,0,0,0,.569.216c.221-.1.437-.206.644-.321a.437.437,0,0,0,.164-.592A.422.422,0,0,0,5.9,6.6" transform="translate(6.792 8.993)" fill="#1d409d"/>
      <path id="Path_477" data-name="Path 477" d="M4.941,1.821v5.16l-2.5,2.5a.68.68,0,0,0,.482,1.161.667.667,0,0,0,.48-.2L6.1,7.744a.671.671,0,0,0,.2-.48V1.821a.68.68,0,1,0-1.36,0" transform="translate(3.336 1.695)" fill="#1d409d"/>
      <path id="Path_478" data-name="Path 478" d="M3.076,11.032a.929.929,0,0,1-.93-.927.919.919,0,0,1,.273-.656L4.84,7.026V1.968a.93.93,0,0,1,1.859,0V7.411a.925.925,0,0,1-.273.659L3.734,10.762a.923.923,0,0,1-.659.271M5.77,1.538a.432.432,0,0,0-.432.43V7.235L2.77,9.8a.414.414,0,0,0-.124.306.424.424,0,0,0,.124.3.441.441,0,0,0,.611,0L6.075,7.717A.426.426,0,0,0,6.2,7.411V1.968a.432.432,0,0,0-.432-.43" transform="translate(3.188 1.548)" fill="#1d409d"/>
      <path id="Path_479" data-name="Path 479" d="M16.837,1.564a.682.682,0,0,0-.681.681V4.134A8.709,8.709,0,1,0,8.809,17.518h.035c.244,0,.492-.01.736-.03a.681.681,0,1,0-.114-1.357c-.206.017-.415.027-.621.027H8.809a7.348,7.348,0,1,1,6.325-11.09H13.263a.68.68,0,1,0,0,1.36h2.078a2.17,2.17,0,0,0,1.131-.318.529.529,0,0,0,.062-.04,2.175,2.175,0,0,0,.984-1.819V2.245a.682.682,0,0,0-.681-.681" transform="translate(0.149 0.15)" fill="#1d409d"/>
      <path id="Path_480" data-name="Path 480" d="M8.992,17.913H8.945a8.956,8.956,0,0,1-6.32-15.29,8.958,8.958,0,0,1,13.431.872v-1.1a.93.93,0,0,1,1.859,0V4.4a2.423,2.423,0,0,1-1.1,2.026.476.476,0,0,1-.075.05,2.4,2.4,0,0,1-1.253.35H13.411a.93.93,0,0,1,0-1.859h1.417a7.1,7.1,0,1,0-5.871,11.09h.035c.2,0,.4-.007.6-.025a.924.924,0,0,1,1,.848.933.933,0,0,1-.848,1c-.249.02-.5.03-.756.03M8.958.5A8.46,8.46,0,0,0,2.975,14.94,8.407,8.407,0,0,0,8.92,17.418l.055-.022.052.022c.229,0,.455-.012.679-.032a.43.43,0,0,0,.4-.465.417.417,0,0,0-.149-.291.474.474,0,0,0-.318-.1c-.211.017-.427.022-.641.022l-.08,0H8.905A7.593,7.593,0,1,1,15.5,5.09l.224.375H13.411a.431.431,0,1,0,0,.862h2.078a1.9,1.9,0,0,0,1-.283l.055-.035A1.931,1.931,0,0,0,17.418,4.4V2.391a.432.432,0,0,0-.865,0V5.135L16.1,4.414A8.427,8.427,0,0,0,8.958.5" transform="translate(0 0.001)" fill="#1d409d"/>
    </g>
  </g>
</svg>
