<svg xmlns="http://www.w3.org/2000/svg" width="29" height="29" viewBox="0 0 29 29">
  <g id="ic-sessions" transform="translate(0 0)">
    <g id="Oval" transform="translate(0 0)" fill="#f3f3f9" stroke="rgba(0,88,255,0.1)" stroke-width="1">
      <circle cx="14.5" cy="14.5" r="14.5" stroke="none"/>
      <circle cx="14.5" cy="14.5" r="14" fill="none"/>
    </g>
    <path id="Icon_awesome-wpforms" data-name="Icon awesome-wpforms" d="M11.9,3.4v9.611a1.135,1.135,0,0,1-1.148,1.148H1.148A1.139,1.139,0,0,1,0,13.006V3.4A1.135,1.135,0,0,1,1.148,2.25h9.611A1.134,1.134,0,0,1,11.9,3.4Zm-.991,9.608V3.4a.158.158,0,0,0-.154-.154h-.247L7.581,5.226,5.952,3.9,4.326,5.226,1.395,3.241H1.148A.158.158,0,0,0,.994,3.4v9.611a.158.158,0,0,0,.154.154h9.611A.154.154,0,0,0,10.913,13.006ZM3.991,6.342v.983H2.038V6.342Zm0,1.977V9.31H2.038V8.319ZM4.286,4.4,5.721,3.244H2.572L4.286,4.4Zm5.58,1.937v.983H4.658V6.342Zm0,1.977V9.31H4.658V8.319ZM7.618,4.4,9.332,3.244H6.186L7.618,4.4Zm2.248,5.9v.991H7.225V10.3H9.866Z" transform="translate(8.548 6.549)" fill="#1d409d"/>
  </g>
</svg>
